<?xml version="1.0" standalone="no"?>
<!DOCTYPE svg PUBLIC "-//W3C//DTD SVG 20010904//EN"
 "http://www.w3.org/TR/2001/REC-SVG-20010904/DTD/svg10.dtd">
<svg version="1.0" xmlns="http://www.w3.org/2000/svg"
 width="272.000000pt" height="272.000000pt" viewBox="0 0 272.000000 272.000000"
 preserveAspectRatio="xMidYMid meet">
<metadata>
Created by potrace 1.14, written by Peter Selinger 2001-2017
</metadata>
<g transform="translate(0.000000,272.000000) scale(0.100000,-0.100000)"
fill="#000000" stroke="none">
<path d="M970 2714 c0 -15 92 -134 104 -134 24 0 66 25 66 40 -1 8 -7 24 -15
34 -19 25 -19 46 -1 46 12 0 47 -39 69 -77 4 -7 -19 -31 -57 -62 -78 -61 -87
-83 -53 -119 30 -32 93 -131 107 -167 5 -14 15 -27 22 -29 51 -15 52 -14 -39
-100 -134 -128 -197 -250 -214 -416 -5 -47 -11 -108 -15 -137 -5 -37 -1 -74
14 -130 11 -43 23 -96 27 -118 17 -103 84 -245 116 -245 10 0 36 -9 58 -21 31
-16 43 -30 51 -57 14 -53 12 -88 -6 -106 -19 -20 -35 -20 -60 -1 -10 8 -23 15
-27 15 -5 0 -22 -30 -38 -67 -17 -38 -46 -99 -64 -138 -18 -38 -35 -78 -39
-88 -10 -30 -33 -19 -85 40 -34 39 -51 67 -51 85 0 37 -10 58 -26 58 -19 0
-93 69 -143 133 -25 33 -46 75 -55 111 -15 56 -22 64 -313 360 -179 183 -299
298 -301 289 -7 -30 9 -62 43 -82 33 -19 75 -73 75 -97 0 -5 -17 -18 -38 -27
-65 -29 -84 -56 -80 -118 l3 -54 20 32 c11 18 25 33 32 33 11 0 162 -172 236
-268 37 -48 54 -57 84 -43 32 15 156 14 171 -1 21 -21 13 -27 -35 -30 -71 -5
-58 -23 30 -42 15 -4 31 -14 34 -22 3 -9 41 -51 85 -94 43 -42 78 -82 78 -89
0 -28 -35 -4 -107 74 -69 75 -113 104 -113 75 0 -5 28 -41 62 -81 100 -113
101 -115 94 -143 -9 -38 -29 -32 -76 25 -27 32 -53 52 -72 56 -19 4 -39 21
-60 49 -17 24 -35 41 -40 38 -11 -7 -12 -6 106 -168 56 -77 124 -178 152 -225
51 -84 52 -86 90 -86 55 0 86 -20 78 -49 -3 -13 1 -40 10 -60 14 -35 17 -36
65 -36 48 0 52 -2 75 -38 13 -20 31 -43 40 -51 9 -7 16 -24 16 -36 0 -43 40
-155 55 -155 18 0 18 5 0 55 -8 22 -14 51 -15 64 0 42 29 4 47 -61 l16 -58 41
0 41 1 -26 22 c-57 48 -66 106 -19 124 22 8 30 18 30 35 0 22 -78 148 -154
248 -18 25 -45 66 -60 91 -25 45 -25 47 -7 63 11 10 45 69 77 132 31 63 63
114 70 114 18 0 165 -129 287 -251 54 -54 117 -108 140 -121 37 -21 45 -32 82
-123 23 -55 60 -140 83 -189 23 -49 42 -102 42 -117 0 -33 28 -40 51 -13 12
14 14 14 26 -2 19 -27 28 -9 15 32 -9 29 -8 44 3 70 8 19 18 34 22 34 8 0 75
-45 148 -99 85 -64 101 -62 54 9 -25 37 -69 153 -69 181 0 33 67 -40 75 -82 9
-45 142 -159 187 -159 20 0 7 17 -82 108 -155 159 -187 204 -192 273 -4 50 -9
60 -42 89 -54 48 -126 153 -126 184 0 23 4 26 33 26 19 0 60 -9 92 -20 98 -34
136 -24 192 52 19 27 23 44 23 109 0 82 15 175 32 197 6 6 28 12 50 12 27 0
41 5 45 17 8 22 -20 132 -53 203 l-25 55 30 26 c24 19 31 34 31 60 0 33 3 36
65 63 99 43 188 131 166 163 -3 5 -52 50 -108 101 -56 50 -114 112 -130 137
-72 116 -158 243 -182 269 -46 51 -175 149 -226 172 -62 28 -252 41 -360 25
-84 -13 -69 -26 -211 194 -139 216 -126 205 -251 205 -57 0 -103 -3 -103 -6z
m364 -283 c42 -65 76 -123 76 -129 0 -11 -23 -22 -48 -22 -9 0 -28 -9 -42 -20
-14 -11 -29 -20 -33 -20 -5 0 -7 26 -6 58 3 62 -4 81 -58 151 -18 24 -33 52
-33 62 0 21 37 50 55 43 7 -3 47 -58 89 -123z m424 -146 c155 -32 246 -84 341
-194 56 -65 161 -220 161 -238 0 -6 -42 -32 -92 -57 -145 -71 -210 -108 -256
-144 -23 -19 -71 -50 -107 -70 -141 -80 -332 -201 -363 -230 -33 -31 -263
-152 -289 -152 -18 0 -42 51 -75 159 -27 90 -37 171 -20 171 8 0 52 -120 52
-143 0 -8 9 -26 21 -41 17 -22 28 -26 67 -25 37 1 74 15 176 67 141 73 176
105 157 141 -15 26 -41 27 -91 1 -22 -11 -43 -20 -48 -20 -5 0 -12 28 -16 61
-7 72 -18 89 -57 89 -34 0 -59 33 -70 93 -4 23 -11 59 -14 80 -6 31 -4 42 14
61 12 13 30 46 41 73 10 28 31 68 45 88 29 44 31 58 10 75 -36 30 -142 -64
-199 -177 -27 -55 -41 -69 -51 -54 -8 14 17 69 59 132 20 30 36 64 36 76 0 16
16 33 58 61 84 56 173 89 347 125 41 9 96 7 163 -8z m-696 -594 c-3 -82 -8
-118 -14 -107 -19 35 -4 257 16 235 2 -2 1 -60 -2 -128z m1218 109 c0 -5 -25
-22 -55 -37 -30 -15 -111 -59 -181 -97 -69 -37 -128 -65 -131 -62 -8 8 -12 4
88 69 88 58 243 137 266 137 7 0 13 -4 13 -10z m68 -54 c15 -8 47 -35 71 -59
l44 -45 -174 -5 c-96 -3 -187 -8 -203 -12 -22 -6 -28 -5 -24 6 4 15 223 129
246 129 7 0 25 -6 40 -14z m-148 -173 c17 -38 52 -144 48 -148 -9 -10 -60 -8
-112 4 -51 11 -64 11 -100 -3 -23 -9 -50 -16 -59 -16 -20 0 -73 -48 -63 -57 3
-3 37 5 76 17 65 21 74 22 102 8 l31 -14 -49 -25 c-27 -13 -49 -30 -49 -38 0
-8 20 -19 50 -27 66 -17 68 -17 62 6 -6 24 23 60 69 83 17 9 35 24 38 33 5 13
9 15 18 6 9 -9 5 -19 -15 -40 -15 -15 -27 -37 -27 -49 0 -11 16 -60 35 -107
39 -98 44 -136 18 -137 -10 0 -36 -1 -58 -2 l-40 -2 -6 -75 c-4 -41 -10 -113
-14 -160 -12 -139 -25 -146 -119 -69 -76 62 -263 263 -296 318 -14 23 -49 73
-77 112 -53 71 -66 109 -38 109 9 0 33 9 54 19 37 19 38 21 44 88 3 37 8 75
12 85 14 35 100 60 320 93 129 19 130 19 145 -12z m103 20 c-13 -2 -33 -2 -45
0 -13 2 -3 4 22 4 25 0 35 -2 23 -4z m-1970 -265 l162 -161 -35 -9 c-19 -6
-42 -16 -52 -25 -14 -13 -18 -12 -35 12 -10 15 -59 75 -108 134 -161 190 -150
174 -126 183 12 4 21 12 21 18 0 5 3 10 6 10 3 0 79 -73 167 -162z m1307 83
c25 -49 -1 -80 -56 -67 -32 8 -31 35 4 63 33 28 39 28 52 4z m-54 -152 c77
-128 84 -138 176 -261 59 -79 115 -140 170 -186 46 -38 89 -77 97 -86 14 -16
12 -17 -17 -14 -36 3 -154 104 -242 205 -69 80 -222 282 -268 352 l-35 55 23
18 c29 23 35 18 96 -83z m-110 5 c11 -21 33 -57 47 -78 32 -47 33 -53 7 -61
-33 -10 -64 18 -101 90 -33 65 -34 66 -14 81 26 19 36 14 61 -32z m-82 -78
c55 -98 96 -124 144 -90 21 14 24 14 51 -8 15 -13 48 -52 72 -87 24 -35 88
-107 142 -159 53 -53 97 -99 97 -103 0 -4 -9 -5 -19 -2 -29 7 -48 -30 -61
-117 -6 -41 -23 -104 -37 -140 -35 -89 -43 -119 -33 -125 15 -9 97 33 116 60
11 14 27 37 38 51 l19 25 28 -27 c34 -33 36 -46 9 -84 -12 -16 -48 -85 -81
-154 -35 -73 -65 -123 -71 -120 -6 4 -36 59 -66 123 -40 82 -56 127 -55 154 0
34 -4 41 -36 62 -42 26 -291 255 -291 267 0 4 -28 34 -62 67 l-62 58 18 76
c19 82 18 104 -17 206 -13 38 -18 66 -12 68 6 2 35 19 65 37 30 19 57 33 61
30 4 -2 24 -33 43 -68z m-193 -47 c17 -32 -3 -46 -36 -25 -21 14 -24 20 -14
32 17 20 36 17 50 -7z m-389 -437 c28 -18 131 -164 143 -201 3 -11 19 -30 36
-42 30 -21 59 -67 59 -93 0 -25 -70 -7 -116 30 -48 39 -224 262 -224 284 0 41
56 53 102 22z m283 -403 c7 -10 -21 -49 -35 -49 -6 0 -30 44 -30 55 0 10 59 4
65 -6z m911 -87 c6 -66 5 -72 -11 -72 -21 0 -65 38 -65 55 0 23 52 107 61 98
5 -5 11 -41 15 -81z m-836 -2 c0 -15 -38 -32 -45 -20 -3 5 -3 15 0 20 8 13 45
13 45 0z"/>
<path d="M1684 2209 c-43 -12 -71 -45 -58 -67 8 -13 31 -18 90 -22 86 -5 88
-6 154 -61 67 -55 147 -91 171 -79 63 34 -51 200 -160 230 -43 12 -154 12
-197 -1z"/>
<path d="M1740 1206 c0 -30 6 -39 45 -67 40 -29 67 -70 89 -133 5 -13 10 -16
17 -9 7 7 7 23 -1 52 -8 30 -8 46 -1 55 11 14 -9 36 -84 93 -64 48 -65 48 -65
9z"/>
<path d="M2017 954 c-4 -4 -7 -16 -7 -27 0 -16 4 -18 23 -12 12 4 40 10 62 13
22 4 39 12 38 17 -3 12 -105 19 -116 9z"/>
<path d="M1540 1027 c0 -8 7 -34 15 -57 8 -23 15 -64 15 -90 0 -52 4 -57 88
-109 58 -37 93 -37 113 1 10 19 8 25 -17 45 -16 13 -52 35 -81 50 -46 25 -55
35 -78 90 -28 64 -55 99 -55 70z"/>
<path d="M0 1256 c0 -60 4 -84 19 -104 10 -15 28 -46 40 -70 24 -46 41 -47 41
-3 0 25 3 28 25 23 21 -4 24 -1 18 14 -9 25 -28 55 -90 143 l-53 74 0 -77z"/>
<path d="M2350 1312 c0 -20 138 -201 222 -291 79 -85 142 -174 131 -185 -10
-10 -73 -7 -93 4 -10 5 -56 56 -101 112 -81 102 -105 125 -116 114 -3 -3 12
-25 35 -50 22 -24 45 -60 50 -79 6 -20 39 -69 73 -110 35 -41 71 -84 79 -95 8
-11 32 -22 53 -25 31 -5 37 -3 37 12 0 10 -11 23 -25 29 -14 6 -25 17 -25 23
0 7 9 9 25 5 25 -6 25 -6 25 61 0 66 -1 69 -48 124 -26 31 -84 100 -129 155
-92 112 -193 214 -193 196z"/>
<path d="M1 1065 c-1 -17 31 -105 70 -195 104 -242 259 -618 259 -628 0 -8 86
-77 164 -132 12 -8 47 -36 78 -63 54 -45 60 -48 107 -45 l50 3 -29 44 c-32 48
-38 71 -17 71 8 0 27 -26 43 -57 24 -47 34 -59 57 -61 l28 -3 -16 31 c-24 46
-113 178 -155 230 -21 25 -70 99 -109 165 -40 66 -97 156 -127 200 -30 44 -59
98 -65 120 -19 72 -37 105 -58 105 -21 0 -61 52 -100 128 -23 45 -47 58 -36
20 16 -57 91 -251 127 -328 104 -225 178 -440 151 -440 -16 0 -49 42 -77 96
-29 60 -171 377 -227 509 -20 50 -56 128 -78 175 -33 71 -40 80 -40 55z m366
-462 c28 -38 60 -87 72 -110 11 -23 25 -45 31 -48 17 -11 56 -77 69 -118 12
-36 11 -40 -10 -63 -12 -13 -27 -24 -34 -24 -6 0 -44 82 -85 183 -40 100 -80
197 -87 215 -7 17 -12 32 -10 32 3 0 27 -30 54 -67z m193 -444 c12 -23 19 -44
15 -47 -3 -3 -22 11 -43 31 -31 31 -34 39 -22 47 24 15 28 12 50 -31z m84
-105 c4 -12 2 -12 -14 -4 -11 6 -20 15 -20 20 0 14 28 1 34 -16z"/>
<path d="M2250 900 c0 -5 24 -63 54 -127 35 -75 61 -149 71 -203 10 -47 32
-143 51 -214 18 -72 32 -132 29 -134 -14 -14 -115 242 -150 381 -18 71 -38
134 -44 140 -38 38 27 -221 102 -403 30 -74 58 -150 62 -167 3 -18 10 -35 15
-38 5 -3 22 -25 38 -49 l30 -44 -21 -21 -21 -21 104 0 105 1 -42 38 c-50 45
-53 58 -16 72 40 15 68 4 86 -33 l17 -33 0 44 c0 31 -7 51 -24 72 -14 16 -57
91 -97 166 -40 76 -102 185 -139 243 -96 151 -135 217 -165 283 -25 51 -45 73
-45 47z m236 -457 c32 -59 74 -132 91 -162 71 -122 69 -105 13 -141 -27 -17
-54 -29 -59 -26 -5 4 -12 21 -16 39 -4 17 -22 86 -41 152 -45 159 -64 245 -55
245 4 0 34 -48 67 -107z"/>
<path d="M2428 843 c-32 -8 -19 -37 65 -156 45 -65 91 -133 102 -151 11 -19
43 -63 70 -98 l50 -63 3 63 c3 62 2 64 -48 132 -28 38 -60 93 -71 122 -13 37
-35 69 -73 106 -53 51 -62 55 -98 45z m103 -116 c15 -28 0 -41 -23 -20 -19 17
-58 84 -58 100 0 10 69 -58 81 -80z m59 -119 c0 -6 -7 -5 -15 2 -8 7 -15 17
-15 22 0 6 7 5 15 -2 8 -7 15 -17 15 -22z"/>
<path d="M1437 366 c-109 -46 -177 -105 -163 -142 6 -15 8 -15 25 0 18 16 21
16 44 1 24 -15 28 -15 74 8 26 13 78 34 116 46 55 19 68 27 73 48 11 41 -7 58
-62 60 -34 2 -67 -5 -107 -21z"/>
<path d="M350 121 c-25 -16 -65 -49 -90 -75 l-44 -46 40 0 c34 0 47 8 103 59
58 54 71 79 45 88 -5 2 -30 -10 -54 -26z"/>
<path d="M1247 103 c-8 -12 88 -106 102 -102 6 2 -13 28 -43 58 -29 29 -56 49
-59 44z"/>
<path d="M418 3 c6 -2 18 -2 25 0 6 3 1 5 -13 5 -14 0 -19 -2 -12 -5z"/>
</g>
</svg>
